<mxfile host="app.diagrams.net" modified="2023-03-17T16:20:23.172Z" agent="5.0 (Windows NT 10.0; Win64; x64) AppleWebKit/537.36 (KHTML, like Gecko) Chrome/109.0.0.0 Safari/537.36" etag="1OHx9nMKp2kL734xdCVD" version="21.0.6" type="github">
  <diagram id="C5RBs43oDa-KdzZeNtuy" name="Page-1">
    <mxGraphModel dx="1120" dy="444" grid="1" gridSize="10" guides="1" tooltips="1" connect="1" arrows="1" fold="1" page="1" pageScale="1" pageWidth="827" pageHeight="1169" math="0" shadow="0">
      <root>
        <mxCell id="WIyWlLk6GJQsqaUBKTNV-0" />
        <mxCell id="WIyWlLk6GJQsqaUBKTNV-1" parent="WIyWlLk6GJQsqaUBKTNV-0" />
        <mxCell id="mHocnjZs8p5Zl0mzPpgq-4" value="Mano" style="swimlane;fontStyle=1;align=center;verticalAlign=top;childLayout=stackLayout;horizontal=1;startSize=26;horizontalStack=0;resizeParent=1;resizeParentMax=0;resizeLast=0;collapsible=1;marginBottom=0;whiteSpace=wrap;html=1;" vertex="1" parent="WIyWlLk6GJQsqaUBKTNV-1">
          <mxGeometry x="644" y="250" width="160" height="120" as="geometry" />
        </mxCell>
        <mxCell id="mHocnjZs8p5Zl0mzPpgq-5" value="" style="line;strokeWidth=1;fillColor=none;align=left;verticalAlign=middle;spacingTop=-1;spacingLeft=3;spacingRight=3;rotatable=0;labelPosition=right;points=[];portConstraint=eastwest;strokeColor=inherit;" vertex="1" parent="mHocnjZs8p5Zl0mzPpgq-4">
          <mxGeometry y="26" width="160" height="8" as="geometry" />
        </mxCell>
        <mxCell id="mHocnjZs8p5Zl0mzPpgq-6" value="+ __init__(cartas)&lt;br&gt;+es_blackjack()-&amp;gt; bool&lt;br&gt;+valor_mano(cartas)&lt;br&gt;+destapar_ocultar(cartas)&lt;br&gt;+comparar_manos(cartas)" style="text;strokeColor=none;fillColor=none;align=left;verticalAlign=top;spacingLeft=4;spacingRight=4;overflow=hidden;rotatable=0;points=[[0,0.5],[1,0.5]];portConstraint=eastwest;whiteSpace=wrap;html=1;" vertex="1" parent="mHocnjZs8p5Zl0mzPpgq-4">
          <mxGeometry y="34" width="160" height="86" as="geometry" />
        </mxCell>
        <mxCell id="mHocnjZs8p5Zl0mzPpgq-7" value="Baraja" style="swimlane;fontStyle=1;align=center;verticalAlign=top;childLayout=stackLayout;horizontal=1;startSize=26;horizontalStack=0;resizeParent=1;resizeParentMax=0;resizeLast=0;collapsible=1;marginBottom=0;whiteSpace=wrap;html=1;" vertex="1" parent="WIyWlLk6GJQsqaUBKTNV-1">
          <mxGeometry x="44" y="410" width="180" height="100" as="geometry" />
        </mxCell>
        <mxCell id="mHocnjZs8p5Zl0mzPpgq-8" value="" style="line;strokeWidth=1;fillColor=none;align=left;verticalAlign=middle;spacingTop=-1;spacingLeft=3;spacingRight=3;rotatable=0;labelPosition=right;points=[];portConstraint=eastwest;strokeColor=inherit;" vertex="1" parent="mHocnjZs8p5Zl0mzPpgq-7">
          <mxGeometry y="26" width="180" height="8" as="geometry" />
        </mxCell>
        <mxCell id="mHocnjZs8p5Zl0mzPpgq-9" value="+ __init__()&lt;br&gt;+revolver()&lt;br&gt;+ repa_carta(tapada) -&amp;gt; carta" style="text;strokeColor=none;fillColor=none;align=left;verticalAlign=top;spacingLeft=4;spacingRight=4;overflow=hidden;rotatable=0;points=[[0,0.5],[1,0.5]];portConstraint=eastwest;whiteSpace=wrap;html=1;" vertex="1" parent="mHocnjZs8p5Zl0mzPpgq-7">
          <mxGeometry y="34" width="180" height="66" as="geometry" />
        </mxCell>
        <mxCell id="mHocnjZs8p5Zl0mzPpgq-10" value="Blackjack" style="swimlane;fontStyle=1;align=center;verticalAlign=top;childLayout=stackLayout;horizontal=1;startSize=26;horizontalStack=0;resizeParent=1;resizeParentMax=0;resizeLast=0;collapsible=1;marginBottom=0;whiteSpace=wrap;html=1;" vertex="1" parent="WIyWlLk6GJQsqaUBKTNV-1">
          <mxGeometry x="24" y="30" width="190" height="160" as="geometry" />
        </mxCell>
        <mxCell id="mHocnjZs8p5Zl0mzPpgq-11" value="+&amp;nbsp; apu_actu: int" style="text;strokeColor=none;fillColor=none;align=left;verticalAlign=top;spacingLeft=4;spacingRight=4;overflow=hidden;rotatable=0;points=[[0,0.5],[1,0.5]];portConstraint=eastwest;whiteSpace=wrap;html=1;" vertex="1" parent="mHocnjZs8p5Zl0mzPpgq-10">
          <mxGeometry y="26" width="190" height="26" as="geometry" />
        </mxCell>
        <mxCell id="mHocnjZs8p5Zl0mzPpgq-12" value="" style="line;strokeWidth=1;fillColor=none;align=left;verticalAlign=middle;spacingTop=-1;spacingLeft=3;spacingRight=3;rotatable=0;labelPosition=right;points=[];portConstraint=eastwest;strokeColor=inherit;" vertex="1" parent="mHocnjZs8p5Zl0mzPpgq-10">
          <mxGeometry y="52" width="190" height="8" as="geometry" />
        </mxCell>
        <mxCell id="mHocnjZs8p5Zl0mzPpgq-13" value="+ __init__()&lt;br&gt;+ regi_jugador(nombre)&lt;br&gt;+ini_juego(apuesta)&lt;br&gt;+selc_jugada(apuesta)&lt;br&gt;+quitar_fichas_o_aÃ±adir(fichas)&lt;br&gt;+jugar_otra_vez()&amp;nbsp;" style="text;strokeColor=none;fillColor=none;align=left;verticalAlign=top;spacingLeft=4;spacingRight=4;overflow=hidden;rotatable=0;points=[[0,0.5],[1,0.5]];portConstraint=eastwest;whiteSpace=wrap;html=1;" vertex="1" parent="mHocnjZs8p5Zl0mzPpgq-10">
          <mxGeometry y="60" width="190" height="100" as="geometry" />
        </mxCell>
        <mxCell id="mHocnjZs8p5Zl0mzPpgq-14" value="Casa" style="swimlane;fontStyle=1;align=center;verticalAlign=top;childLayout=stackLayout;horizontal=1;startSize=26;horizontalStack=0;resizeParent=1;resizeParentMax=0;resizeLast=0;collapsible=1;marginBottom=0;whiteSpace=wrap;html=1;" vertex="1" parent="WIyWlLk6GJQsqaUBKTNV-1">
          <mxGeometry x="408" y="30" width="160" height="70" as="geometry" />
        </mxCell>
        <mxCell id="mHocnjZs8p5Zl0mzPpgq-15" value="+ __init__ ()&lt;br&gt;+ini_mano (cartas)" style="text;strokeColor=none;fillColor=none;align=left;verticalAlign=top;spacingLeft=4;spacingRight=4;overflow=hidden;rotatable=0;points=[[0,0.5],[1,0.5]];portConstraint=eastwest;whiteSpace=wrap;html=1;" vertex="1" parent="mHocnjZs8p5Zl0mzPpgq-14">
          <mxGeometry y="26" width="160" height="44" as="geometry" />
        </mxCell>
        <mxCell id="mHocnjZs8p5Zl0mzPpgq-16" value="Jugador" style="swimlane;fontStyle=1;align=center;verticalAlign=top;childLayout=stackLayout;horizontal=1;startSize=26;horizontalStack=0;resizeParent=1;resizeParentMax=0;resizeLast=0;collapsible=1;marginBottom=0;whiteSpace=wrap;html=1;" vertex="1" parent="WIyWlLk6GJQsqaUBKTNV-1">
          <mxGeometry x="404" y="190" width="160" height="120" as="geometry" />
        </mxCell>
        <mxCell id="mHocnjZs8p5Zl0mzPpgq-17" value="+ fichas: int&lt;br&gt;+ nombre: str" style="text;strokeColor=none;fillColor=none;align=left;verticalAlign=top;spacingLeft=4;spacingRight=4;overflow=hidden;rotatable=0;points=[[0,0.5],[1,0.5]];portConstraint=eastwest;whiteSpace=wrap;html=1;" vertex="1" parent="mHocnjZs8p5Zl0mzPpgq-16">
          <mxGeometry y="26" width="160" height="44" as="geometry" />
        </mxCell>
        <mxCell id="mHocnjZs8p5Zl0mzPpgq-18" value="" style="line;strokeWidth=1;fillColor=none;align=left;verticalAlign=middle;spacingTop=-1;spacingLeft=3;spacingRight=3;rotatable=0;labelPosition=right;points=[];portConstraint=eastwest;strokeColor=inherit;" vertex="1" parent="mHocnjZs8p5Zl0mzPpgq-16">
          <mxGeometry y="70" width="160" height="8" as="geometry" />
        </mxCell>
        <mxCell id="mHocnjZs8p5Zl0mzPpgq-19" value="+ __init__ (nombre, ficha)&lt;br&gt;+ ini_mano(cartas)" style="text;strokeColor=none;fillColor=none;align=left;verticalAlign=top;spacingLeft=4;spacingRight=4;overflow=hidden;rotatable=0;points=[[0,0.5],[1,0.5]];portConstraint=eastwest;whiteSpace=wrap;html=1;" vertex="1" parent="mHocnjZs8p5Zl0mzPpgq-16">
          <mxGeometry y="78" width="160" height="42" as="geometry" />
        </mxCell>
        <mxCell id="mHocnjZs8p5Zl0mzPpgq-20" value="Carta" style="swimlane;fontStyle=1;align=center;verticalAlign=top;childLayout=stackLayout;horizontal=1;startSize=26;horizontalStack=0;resizeParent=1;resizeParentMax=0;resizeLast=0;collapsible=1;marginBottom=0;whiteSpace=wrap;html=1;" vertex="1" parent="WIyWlLk6GJQsqaUBKTNV-1">
          <mxGeometry x="414" y="390" width="160" height="114" as="geometry" />
        </mxCell>
        <mxCell id="mHocnjZs8p5Zl0mzPpgq-21" value="+ pinta: str&lt;br&gt;+valor: str&lt;br&gt;tapada: bool" style="text;strokeColor=none;fillColor=none;align=left;verticalAlign=top;spacingLeft=4;spacingRight=4;overflow=hidden;rotatable=0;points=[[0,0.5],[1,0.5]];portConstraint=eastwest;whiteSpace=wrap;html=1;" vertex="1" parent="mHocnjZs8p5Zl0mzPpgq-20">
          <mxGeometry y="26" width="160" height="54" as="geometry" />
        </mxCell>
        <mxCell id="mHocnjZs8p5Zl0mzPpgq-22" value="" style="line;strokeWidth=1;fillColor=none;align=left;verticalAlign=middle;spacingTop=-1;spacingLeft=3;spacingRight=3;rotatable=0;labelPosition=right;points=[];portConstraint=eastwest;strokeColor=inherit;" vertex="1" parent="mHocnjZs8p5Zl0mzPpgq-20">
          <mxGeometry y="80" width="160" height="8" as="geometry" />
        </mxCell>
        <mxCell id="mHocnjZs8p5Zl0mzPpgq-23" value="+ __init__(pinta,valor)" style="text;strokeColor=none;fillColor=none;align=left;verticalAlign=top;spacingLeft=4;spacingRight=4;overflow=hidden;rotatable=0;points=[[0,0.5],[1,0.5]];portConstraint=eastwest;whiteSpace=wrap;html=1;" vertex="1" parent="mHocnjZs8p5Zl0mzPpgq-20">
          <mxGeometry y="88" width="160" height="26" as="geometry" />
        </mxCell>
        <mxCell id="mHocnjZs8p5Zl0mzPpgq-24" value="cuper" style="text;html=1;align=center;verticalAlign=middle;resizable=0;points=[];autosize=1;strokeColor=none;fillColor=none;" vertex="1" parent="WIyWlLk6GJQsqaUBKTNV-1">
          <mxGeometry x="424" y="110" width="50" height="30" as="geometry" />
        </mxCell>
        <mxCell id="mHocnjZs8p5Zl0mzPpgq-25" value="" style="endArrow=classic;html=1;rounded=0;exitX=1;exitY=0.5;exitDx=0;exitDy=0;entryX=0.425;entryY=1.095;entryDx=0;entryDy=0;entryPerimeter=0;" edge="1" parent="WIyWlLk6GJQsqaUBKTNV-1" source="mHocnjZs8p5Zl0mzPpgq-13" target="mHocnjZs8p5Zl0mzPpgq-15">
          <mxGeometry width="50" height="50" relative="1" as="geometry">
            <mxPoint x="374" y="270" as="sourcePoint" />
            <mxPoint x="424" y="220" as="targetPoint" />
            <Array as="points">
              <mxPoint x="334" y="140" />
              <mxPoint x="476" y="140" />
            </Array>
          </mxGeometry>
        </mxCell>
        <mxCell id="mHocnjZs8p5Zl0mzPpgq-26" value="" style="endArrow=classic;html=1;rounded=0;entryX=-0.01;entryY=0.826;entryDx=0;entryDy=0;entryPerimeter=0;" edge="1" parent="WIyWlLk6GJQsqaUBKTNV-1" target="mHocnjZs8p5Zl0mzPpgq-17">
          <mxGeometry width="50" height="50" relative="1" as="geometry">
            <mxPoint x="214" y="170" as="sourcePoint" />
            <mxPoint x="424" y="220" as="targetPoint" />
            <Array as="points">
              <mxPoint x="374" y="170" />
              <mxPoint x="374" y="252" />
            </Array>
          </mxGeometry>
        </mxCell>
        <mxCell id="mHocnjZs8p5Zl0mzPpgq-27" value="jugador&amp;nbsp;" style="text;html=1;strokeColor=none;fillColor=none;align=center;verticalAlign=middle;whiteSpace=wrap;rounded=0;" vertex="1" parent="WIyWlLk6GJQsqaUBKTNV-1">
          <mxGeometry x="364" y="250" width="20" height="30" as="geometry" />
        </mxCell>
        <mxCell id="mHocnjZs8p5Zl0mzPpgq-28" value="" style="endArrow=classic;html=1;rounded=0;exitX=1.016;exitY=0;exitDx=0;exitDy=0;exitPerimeter=0;entryX=0.564;entryY=-0.003;entryDx=0;entryDy=0;entryPerimeter=0;" edge="1" parent="WIyWlLk6GJQsqaUBKTNV-1" source="mHocnjZs8p5Zl0mzPpgq-15" target="mHocnjZs8p5Zl0mzPpgq-4">
          <mxGeometry width="50" height="50" relative="1" as="geometry">
            <mxPoint x="674" y="60" as="sourcePoint" />
            <mxPoint x="734" y="240" as="targetPoint" />
            <Array as="points">
              <mxPoint x="734" y="56" />
            </Array>
          </mxGeometry>
        </mxCell>
        <mxCell id="mHocnjZs8p5Zl0mzPpgq-29" value="" style="endArrow=classic;html=1;rounded=0;entryX=0.007;entryY=0.256;entryDx=0;entryDy=0;entryPerimeter=0;" edge="1" parent="WIyWlLk6GJQsqaUBKTNV-1" source="mHocnjZs8p5Zl0mzPpgq-17" target="mHocnjZs8p5Zl0mzPpgq-6">
          <mxGeometry width="50" height="50" relative="1" as="geometry">
            <mxPoint x="564" y="238" as="sourcePoint" />
            <mxPoint x="634" y="320" as="targetPoint" />
            <Array as="points">
              <mxPoint x="604" y="240" />
              <mxPoint x="604" y="306" />
            </Array>
          </mxGeometry>
        </mxCell>
        <mxCell id="mHocnjZs8p5Zl0mzPpgq-30" value="" style="endArrow=classic;html=1;rounded=0;exitX=0.438;exitY=1;exitDx=0;exitDy=0;exitPerimeter=0;" edge="1" parent="WIyWlLk6GJQsqaUBKTNV-1" source="mHocnjZs8p5Zl0mzPpgq-6">
          <mxGeometry width="50" height="50" relative="1" as="geometry">
            <mxPoint x="724" y="410" as="sourcePoint" />
            <mxPoint x="574" y="420" as="targetPoint" />
            <Array as="points">
              <mxPoint x="714" y="420" />
            </Array>
          </mxGeometry>
        </mxCell>
        <mxCell id="mHocnjZs8p5Zl0mzPpgq-31" value="" style="endArrow=classic;html=1;rounded=0;" edge="1" parent="WIyWlLk6GJQsqaUBKTNV-1">
          <mxGeometry width="50" height="50" relative="1" as="geometry">
            <mxPoint x="134" y="190" as="sourcePoint" />
            <mxPoint x="134" y="410" as="targetPoint" />
            <Array as="points" />
          </mxGeometry>
        </mxCell>
        <mxCell id="mHocnjZs8p5Zl0mzPpgq-32" value="" style="endArrow=classic;html=1;rounded=0;exitX=0.445;exitY=1.036;exitDx=0;exitDy=0;exitPerimeter=0;" edge="1" parent="WIyWlLk6GJQsqaUBKTNV-1" source="mHocnjZs8p5Zl0mzPpgq-9">
          <mxGeometry width="50" height="50" relative="1" as="geometry">
            <mxPoint x="144" y="570" as="sourcePoint" />
            <mxPoint x="494" y="500" as="targetPoint" />
            <Array as="points">
              <mxPoint x="124" y="560" />
              <mxPoint x="493" y="560" />
            </Array>
          </mxGeometry>
        </mxCell>
        <mxCell id="mHocnjZs8p5Zl0mzPpgq-33" value="carta" style="text;html=1;strokeColor=none;fillColor=none;align=center;verticalAlign=middle;whiteSpace=wrap;rounded=0;" vertex="1" parent="WIyWlLk6GJQsqaUBKTNV-1">
          <mxGeometry x="434" y="530" width="60" height="30" as="geometry" />
        </mxCell>
        <mxCell id="mHocnjZs8p5Zl0mzPpgq-34" value="carta" style="text;html=1;strokeColor=none;fillColor=none;align=center;verticalAlign=middle;whiteSpace=wrap;rounded=0;" vertex="1" parent="WIyWlLk6GJQsqaUBKTNV-1">
          <mxGeometry x="654" y="390" width="60" height="30" as="geometry" />
        </mxCell>
        <mxCell id="mHocnjZs8p5Zl0mzPpgq-35" value="mano" style="text;html=1;strokeColor=none;fillColor=none;align=center;verticalAlign=middle;whiteSpace=wrap;rounded=0;" vertex="1" parent="WIyWlLk6GJQsqaUBKTNV-1">
          <mxGeometry x="594" y="280" width="60" height="30" as="geometry" />
        </mxCell>
        <mxCell id="mHocnjZs8p5Zl0mzPpgq-36" value="baraja" style="text;html=1;strokeColor=none;fillColor=none;align=center;verticalAlign=middle;whiteSpace=wrap;rounded=0;" vertex="1" parent="WIyWlLk6GJQsqaUBKTNV-1">
          <mxGeometry x="124" y="370" width="60" height="30" as="geometry" />
        </mxCell>
      </root>
    </mxGraphModel>
  </diagram>
</mxfile>
